<svg width="101" height="54" viewBox="0 0 101 54" fill="none" xmlns="http://www.w3.org/2000/svg">
<path d="M23.1914 22.9062H45.375V50.6094C39.3516 52.6719 32.7305 53.7031 25.5117 53.7031C17.5898 53.7031 11.4609 51.4062 7.125 46.8125C2.8125 42.2188 0.65625 35.668 0.65625 27.1602C0.65625 18.8633 3.02344 12.4062 7.75781 7.78906C12.4922 3.17188 19.125 0.863281 27.6562 0.863281C30.8906 0.863281 33.9375 1.16797 36.7969 1.77734C39.6797 2.38672 42.1875 3.16016 44.3203 4.09766L39.9258 14.9961C36.2227 13.168 32.1562 12.2539 27.7266 12.2539C23.6719 12.2539 20.5312 13.5781 18.3047 16.2266C16.1016 18.8516 15 22.6133 15 27.5117C15 32.3164 15.9961 35.9844 17.9883 38.5156C20.0039 41.0234 22.8984 42.2773 26.6719 42.2773C28.7344 42.2773 30.6328 42.0781 32.3672 41.6797V33.6289H23.1914V22.9062ZM84.7148 1.60156H100.254L83.4141 53H67.0664L50.2969 1.60156H65.9062L72.9023 27.6523C74.3555 33.4414 75.1523 37.4727 75.293 39.7461C75.457 38.1055 75.7852 36.0547 76.2773 33.5938C76.7695 31.1328 77.2031 29.1992 77.5781 27.793L84.7148 1.60156Z" fill="black"/>
</svg>
